<?xml version="1.0" encoding="UTF-8" standalone="no"?>
<!DOCTYPE svg PUBLIC "-//W3C//DTD SVG 1.1//EN"
 "http://www.w3.org/Graphics/SVG/1.1/DTD/svg11.dtd">
<!-- Generated by graphviz version 2.44.0 (0)
 -->
<!-- Title: G Pages: 1 -->
<svg width="1367pt" height="898pt"
 viewBox="0.00 0.00 1366.82 898.46" xmlns="http://www.w3.org/2000/svg" xmlns:xlink="http://www.w3.org/1999/xlink">
<g id="graph0" class="graph" transform="scale(1 1) rotate(0) translate(4 894.46)">
<title>G</title>
<polygon fill="white" stroke="transparent" points="-4,4 -4,-894.46 1362.82,-894.46 1362.82,4 -4,4"/>
<!-- 0 -->
<g id="node1" class="node">
<title>0</title>
<polygon fill="none" stroke="brown" points="390.95,-665.21 335.09,-696.27 223.37,-696.27 167.51,-665.21 223.37,-634.16 335.09,-634.16 390.95,-665.21"/>
<text text-anchor="middle" x="279.23" y="-669.01" font-family="Times-Roman" font-size="14.00" fill="brown">hsi&#45;fake&#45;segment</text>
<text text-anchor="middle" x="279.23" y="-654.01" font-family="Times-Roman" font-size="14.00" fill="brown">Segment</text>
</g>
<!-- 7 -->
<g id="node8" class="node">
<title>7</title>
<polygon fill="none" stroke="blue" points="444.62,-513.25 279.23,-536.35 113.85,-513.25 177.02,-475.88 381.44,-475.88 444.62,-513.25"/>
<text text-anchor="middle" x="279.23" y="-506.72" font-family="Times-Roman" font-size="14.00" fill="blue">hsi&#45;fake&#45;to&#45;tc&#45;app</text>
<text text-anchor="middle" x="279.23" y="-491.72" font-family="Times-Roman" font-size="14.00" fill="blue">HSIEventToTCApplication</text>
</g>
<!-- 0&#45;&gt;7 -->
<g id="edge2" class="edge">
<title>0&#45;&gt;7</title>
<path fill="none" stroke="black" stroke-dasharray="1,5" d="M279.23,-634.06C279.23,-606.13 279.23,-564.71 279.23,-536.13"/>
</g>
<!-- 8 -->
<g id="node9" class="node">
<title>8</title>
<polygon fill="none" stroke="blue" points="260.69,-43.54 130.23,-66.64 -0.23,-43.54 49.6,-6.17 210.86,-6.17 260.69,-43.54"/>
<text text-anchor="middle" x="130.23" y="-37.01" font-family="Times-Roman" font-size="14.00" fill="blue">hsi&#45;fake&#45;01</text>
<text text-anchor="middle" x="130.23" y="-22.01" font-family="Times-Roman" font-size="14.00" fill="blue">FakeHSIApplication</text>
</g>
<!-- 0&#45;&gt;8 -->
<g id="edge1" class="edge">
<title>0&#45;&gt;8</title>
<path fill="none" stroke="black" stroke-dasharray="1,5" d="M207.46,-642.9C145.95,-619.68 67.23,-575.9 67.23,-503.92 67.23,-503.92 67.23,-503.92 67.23,-149.64 67.23,-116.76 87.16,-84.35 104.61,-62.28"/>
</g>
<!-- 1 -->
<g id="node2" class="node">
<title>1</title>
<polygon fill="none" stroke="brown" points="662.3,-585.16 620.76,-616.21 537.7,-616.21 496.16,-585.16 537.7,-554.11 620.76,-554.11 662.3,-585.16"/>
<text text-anchor="middle" x="579.23" y="-588.96" font-family="Times-Roman" font-size="14.00" fill="brown">trg&#45;segment</text>
<text text-anchor="middle" x="579.23" y="-573.96" font-family="Times-Roman" font-size="14.00" fill="brown">Segment</text>
</g>
<!-- 2 -->
<g id="node3" class="node">
<title>2</title>
<polygon fill="none" stroke="blue" points="684.25,-395.82 580.23,-418.92 476.21,-395.82 515.94,-358.45 644.52,-358.45 684.25,-395.82"/>
<text text-anchor="middle" x="580.23" y="-389.29" font-family="Times-Roman" font-size="14.00" fill="blue">mlt</text>
<text text-anchor="middle" x="580.23" y="-374.29" font-family="Times-Roman" font-size="14.00" fill="blue">MLTApplication</text>
</g>
<!-- 1&#45;&gt;2 -->
<g id="edge3" class="edge">
<title>1&#45;&gt;2</title>
<path fill="none" stroke="black" stroke-dasharray="1,5" d="M579.38,-553.71C579.57,-517.21 579.88,-456.32 580.07,-418.95"/>
</g>
<!-- 2&#45;&gt;2 -->
<g id="edge13" class="edge">
<title>2&#45;&gt;2</title>
<path fill="none" stroke="black" d="M683.48,-394.64C694.88,-392.9 702.24,-389.85 702.24,-385.49 702.24,-379.81 689.73,-376.35 672.06,-375.12"/>
<polygon fill="black" stroke="black" points="671.91,-371.61 661.77,-374.67 671.6,-378.61 671.91,-371.61"/>
<text text-anchor="middle" x="721.74" y="-381.79" font-family="Times-Roman" font-size="14.00">tcs_.*</text>
</g>
<!-- 6 -->
<g id="node7" class="node">
<title>6</title>
<polygon fill="none" stroke="blue" points="675.74,-278.4 568.23,-301.49 460.72,-278.4 501.78,-241.02 634.68,-241.02 675.74,-278.4"/>
<text text-anchor="middle" x="568.23" y="-271.87" font-family="Times-Roman" font-size="14.00" fill="blue">dfo&#45;01</text>
<text text-anchor="middle" x="568.23" y="-256.87" font-family="Times-Roman" font-size="14.00" fill="blue">DFOApplication</text>
</g>
<!-- 2&#45;&gt;6 -->
<g id="edge15" class="edge">
<title>2&#45;&gt;6</title>
<path fill="none" stroke="black" d="M524.62,-358.17C516.03,-351.6 508.32,-343.68 503.23,-334.28 495.98,-320.89 503.12,-308.44 514.95,-298.08"/>
<polygon fill="black" stroke="black" points="517.11,-300.83 522.83,-291.91 512.8,-295.32 517.11,-300.83"/>
<text text-anchor="middle" x="539.73" y="-323.08" font-family="Times-Roman" font-size="14.00">td_mlt_dfo</text>
</g>
<!-- 10 -->
<g id="node11" class="node">
<title>10</title>
<polygon fill="none" stroke="blue" points="511.27,-160.97 414.23,-184.07 317.2,-160.97 354.26,-123.6 474.2,-123.6 511.27,-160.97"/>
<text text-anchor="middle" x="414.23" y="-154.44" font-family="Times-Roman" font-size="14.00" fill="blue">df&#45;01</text>
<text text-anchor="middle" x="414.23" y="-139.44" font-family="Times-Roman" font-size="14.00" fill="blue">DFApplication</text>
</g>
<!-- 2&#45;&gt;10 -->
<g id="edge14" class="edge">
<title>2&#45;&gt;10</title>
<path fill="none" stroke="black" d="M510.77,-363.08C440.24,-341.01 340.61,-308.79 335.23,-301.28 318.04,-277.28 324.29,-262.27 335.23,-234.85 343.15,-215 358.31,-197.17 373.25,-183.16"/>
<polygon fill="black" stroke="black" points="375.91,-185.48 381,-176.19 371.23,-180.27 375.91,-185.48"/>
<text text-anchor="middle" x="393.23" y="-264.37" font-family="Times-Roman" font-size="14.00">fragments_df&#45;01</text>
</g>
<!-- 3 -->
<g id="node4" class="node">
<title>3</title>
<polygon fill="none" stroke="black" points="681.93,-849.3 681.93,-873.46 584.28,-890.55 446.18,-890.55 348.53,-873.46 348.53,-849.3 446.18,-832.21 584.28,-832.21 681.93,-849.3"/>
<text text-anchor="middle" x="515.23" y="-865.18" font-family="Times-Roman" font-size="14.00">local&#45;crt&#45;grenoble&#45;1x1&#45;config</text>
<text text-anchor="middle" x="515.23" y="-850.18" font-family="Times-Roman" font-size="14.00">Session</text>
</g>
<!-- 5 -->
<g id="node6" class="node">
<title>5</title>
<polygon fill="none" stroke="brown" points="678.33,-764.27 596.78,-795.32 433.68,-795.32 352.13,-764.27 433.68,-733.21 596.78,-733.21 678.33,-764.27"/>
<text text-anchor="middle" x="515.23" y="-768.07" font-family="Times-Roman" font-size="14.00" fill="brown">crt&#45;grenoble&#45;root&#45;segment</text>
<text text-anchor="middle" x="515.23" y="-753.07" font-family="Times-Roman" font-size="14.00" fill="brown">Segment</text>
</g>
<!-- 3&#45;&gt;5 -->
<g id="edge4" class="edge">
<title>3&#45;&gt;5</title>
<path fill="none" stroke="black" stroke-dasharray="1,5" d="M515.23,-832.1C515.23,-820.6 515.23,-807.29 515.23,-795.59"/>
</g>
<!-- 4 -->
<g id="node5" class="node">
<title>4</title>
<polygon fill="none" stroke="brown" points="458.5,-385.49 419.36,-416.55 341.1,-416.55 301.96,-385.49 341.1,-354.44 419.36,-354.44 458.5,-385.49"/>
<text text-anchor="middle" x="380.23" y="-389.29" font-family="Times-Roman" font-size="14.00" fill="brown">df&#45;segment</text>
<text text-anchor="middle" x="380.23" y="-374.29" font-family="Times-Roman" font-size="14.00" fill="brown">Segment</text>
</g>
<!-- 4&#45;&gt;6 -->
<g id="edge5" class="edge">
<title>4&#45;&gt;6</title>
<path fill="none" stroke="black" stroke-dasharray="1,5" d="M423.83,-357.72C455.62,-338.21 498.31,-311.99 529.02,-293.14"/>
</g>
<!-- 4&#45;&gt;10 -->
<g id="edge6" class="edge">
<title>4&#45;&gt;10</title>
<path fill="none" stroke="black" stroke-dasharray="1,5" d="M335.45,-358.43C326.68,-351.55 318.32,-343.45 312.23,-334.28 287.7,-297.35 298.97,-278.87 304.23,-234.85 306.02,-219.87 302.79,-213.63 312.23,-201.85 323.34,-187.99 339.24,-177.67 355.2,-170.11"/>
</g>
<!-- 5&#45;&gt;0 -->
<g id="edge10" class="edge">
<title>5&#45;&gt;0</title>
<path fill="none" stroke="black" stroke-dasharray="1,5" d="M442.18,-733.22C410.36,-720.14 373.43,-704.95 342.77,-692.34"/>
</g>
<!-- 5&#45;&gt;1 -->
<g id="edge9" class="edge">
<title>5&#45;&gt;1</title>
<path fill="none" stroke="black" stroke-dasharray="1,5" d="M526.09,-733.22C537.86,-700.65 556.53,-648.98 568.32,-616.35"/>
</g>
<!-- 5&#45;&gt;4 -->
<g id="edge8" class="edge">
<title>5&#45;&gt;4</title>
<path fill="none" stroke="black" stroke-dasharray="1,5" d="M509.74,-732.99C496.88,-662.82 465.02,-493.26 453.23,-469.71 443.42,-450.11 427.87,-431.47 413.64,-416.82"/>
</g>
<!-- 9 -->
<g id="node10" class="node">
<title>9</title>
<polygon fill="none" stroke="brown" points="1169.44,-665.21 1101.34,-696.27 965.13,-696.27 897.02,-665.21 965.13,-634.16 1101.34,-634.16 1169.44,-665.21"/>
<text text-anchor="middle" x="1033.23" y="-669.01" font-family="Times-Roman" font-size="14.00" fill="brown">crt&#45;grenoble&#45;segment</text>
<text text-anchor="middle" x="1033.23" y="-654.01" font-family="Times-Roman" font-size="14.00" fill="brown">Segment</text>
</g>
<!-- 5&#45;&gt;9 -->
<g id="edge7" class="edge">
<title>5&#45;&gt;9</title>
<path fill="none" stroke="black" stroke-dasharray="1,5" d="M622.88,-743.1C715.8,-725.69 848.78,-700.77 937.92,-684.07"/>
</g>
<!-- 6&#45;&gt;2 -->
<g id="edge16" class="edge">
<title>6&#45;&gt;2</title>
<path fill="none" stroke="black" d="M573.69,-300.34C574.65,-306.6 575.55,-313.14 576.23,-319.28 577.26,-328.62 578.04,-338.74 578.63,-348.16"/>
<polygon fill="black" stroke="black" points="575.15,-348.64 579.21,-358.42 582.14,-348.24 575.15,-348.64"/>
<text text-anchor="middle" x="627.23" y="-323.08" font-family="Times-Roman" font-size="14.00">trigger_inhibit</text>
</g>
<!-- 6&#45;&gt;10 -->
<g id="edge17" class="edge">
<title>6&#45;&gt;10</title>
<path fill="none" stroke="black" d="M553.21,-240.81C544.8,-227.83 533.36,-212.67 520.23,-201.85 507.67,-191.5 492.63,-182.72 477.87,-175.54"/>
<polygon fill="black" stroke="black" points="479.28,-172.34 468.74,-171.27 476.32,-178.68 479.28,-172.34"/>
<text text-anchor="middle" x="612.73" y="-205.65" font-family="Times-Roman" font-size="14.00">trigger_decision_df&#45;01</text>
</g>
<!-- 7&#45;&gt;2 -->
<g id="edge18" class="edge">
<title>7&#45;&gt;2</title>
<path fill="none" stroke="black" d="M347.16,-475.87C398.14,-456.32 467.44,-429.74 517.2,-410.66"/>
<polygon fill="black" stroke="black" points="518.48,-413.92 526.57,-407.07 515.98,-407.38 518.48,-413.92"/>
<text text-anchor="middle" x="467.73" y="-440.51" font-family="Times-Roman" font-size="14.00">tcs_.*</text>
</g>
<!-- 8&#45;&gt;7 -->
<g id="edge20" class="edge">
<title>8&#45;&gt;7</title>
<path fill="none" stroke="black" d="M123.12,-65.38C118.46,-88.51 113.23,-120.88 113.23,-149.64 113.23,-386.49 113.23,-386.49 113.23,-386.49 113.23,-426.29 145.8,-453.48 182.08,-471.42"/>
<polygon fill="black" stroke="black" points="180.83,-474.7 191.37,-475.79 183.81,-468.37 180.83,-474.7"/>
<text text-anchor="middle" x="146.73" y="-264.37" font-family="Times-Roman" font-size="14.00">hsi_event</text>
</g>
<!-- 8&#45;&gt;10 -->
<g id="edge19" class="edge">
<title>8&#45;&gt;10</title>
<path fill="none" stroke="black" d="M247.48,-45.98C284.12,-53.31 323.48,-65.18 356.23,-84.43 369.37,-92.15 381.14,-103.87 390.59,-115.25"/>
<polygon fill="black" stroke="black" points="388.09,-117.75 397.04,-123.42 393.59,-113.41 388.09,-117.75"/>
<text text-anchor="middle" x="433.23" y="-88.23" font-family="Times-Roman" font-size="14.00">fragments_df&#45;01</text>
</g>
<!-- 11 -->
<g id="node12" class="node">
<title>11</title>
<polygon fill="none" stroke="blue" points="996.19,-43.54 864.23,-66.64 732.27,-43.54 782.68,-6.17 945.79,-6.17 996.19,-43.54"/>
<text text-anchor="middle" x="864.23" y="-37.01" font-family="Times-Roman" font-size="14.00" fill="blue">crt&#45;grenoble&#45;ru&#45;01</text>
<text text-anchor="middle" x="864.23" y="-22.01" font-family="Times-Roman" font-size="14.00" fill="blue">ReadoutApplication</text>
</g>
<!-- 9&#45;&gt;11 -->
<g id="edge12" class="edge">
<title>9&#45;&gt;11</title>
<path fill="none" stroke="black" stroke-dasharray="1,5" d="M1033.23,-634.08C1033.23,-601.86 1033.23,-549.28 1033.23,-503.92 1033.23,-503.92 1033.23,-503.92 1033.23,-149.64 1033.23,-100.43 983.76,-70.68 938.36,-53.74"/>
</g>
<!-- 12 -->
<g id="node13" class="node">
<title>12</title>
<polygon fill="none" stroke="blue" points="1358.9,-513.25 1210.23,-536.35 1061.56,-513.25 1118.35,-475.88 1302.11,-475.88 1358.9,-513.25"/>
<text text-anchor="middle" x="1210.23" y="-506.72" font-family="Times-Roman" font-size="14.00" fill="blue">crt&#45;grenoble&#45;01</text>
<text text-anchor="middle" x="1210.23" y="-491.72" font-family="Times-Roman" font-size="14.00" fill="blue">CRTReaderApplication</text>
</g>
<!-- 9&#45;&gt;12 -->
<g id="edge11" class="edge">
<title>9&#45;&gt;12</title>
<path fill="none" stroke="black" stroke-dasharray="1,5" d="M1066.52,-634.06C1098.97,-604.68 1147.9,-560.37 1179.46,-531.79"/>
</g>
<!-- 10&#45;&gt;2 -->
<g id="edge22" class="edge">
<title>10&#45;&gt;2</title>
<path fill="none" stroke="black" d="M506.27,-155.73C578.42,-161.09 670.46,-173.44 694.23,-201.85 732.21,-247.25 715,-286.38 680.23,-334.28 673.9,-343.01 665.61,-350.31 656.51,-356.4"/>
<polygon fill="black" stroke="black" points="654.65,-353.43 647.96,-361.65 658.31,-359.4 654.65,-353.43"/>
<text text-anchor="middle" x="793.23" y="-264.37" font-family="Times-Roman" font-size="14.00">data_requests_for_mlt</text>
</g>
<!-- 10&#45;&gt;6 -->
<g id="edge23" class="edge">
<title>10&#45;&gt;6</title>
<path fill="none" stroke="black" d="M405.15,-181.91C403.42,-193.82 404.01,-206.97 411.23,-216.85 416.19,-223.64 449.64,-234.77 484.41,-244.83"/>
<polygon fill="black" stroke="black" points="483.65,-248.25 494.22,-247.63 485.57,-241.52 483.65,-248.25"/>
<text text-anchor="middle" x="463.73" y="-205.65" font-family="Times-Roman" font-size="14.00">dataflow_token</text>
</g>
<!-- 10&#45;&gt;8 -->
<g id="edge21" class="edge">
<title>10&#45;&gt;8</title>
<path fill="none" stroke="black" d="M333.3,-144.52C263.41,-138.38 169.63,-125.47 143.23,-99.43 137.03,-93.31 133.35,-85.13 131.25,-76.64"/>
<polygon fill="black" stroke="black" points="134.67,-75.85 129.46,-66.63 127.78,-77.09 134.67,-75.85"/>
<text text-anchor="middle" x="247.73" y="-88.23" font-family="Times-Roman" font-size="14.00">data_requests_for_hsi&#45;fake&#45;01</text>
</g>
<!-- 10&#45;&gt;11 -->
<g id="edge24" class="edge">
<title>10&#45;&gt;11</title>
<path fill="none" stroke="black" d="M456.8,-123.5C469.23,-115.8 482.81,-107.33 495.23,-99.43 505.53,-92.88 506.81,-88.74 518.23,-84.43 584.53,-59.39 662.32,-46.75 727.34,-40.4"/>
<polygon fill="black" stroke="black" points="728.03,-43.85 737.66,-39.44 727.37,-36.88 728.03,-43.85"/>
<text text-anchor="middle" x="647.73" y="-88.23" font-family="Times-Roman" font-size="14.00">data_requests_for_crt&#45;grenoble&#45;ru&#45;01</text>
</g>
<!-- 11&#45;&gt;2 -->
<g id="edge25" class="edge">
<title>11&#45;&gt;2</title>
<path fill="none" stroke="black" d="M899.41,-60.48C906.25,-67.44 912.45,-75.53 916.23,-84.43 935.41,-129.61 907.69,-265.37 874.23,-301.28 824.97,-354.15 744.9,-374.31 680.75,-381.61"/>
<polygon fill="black" stroke="black" points="680.18,-378.15 670.6,-382.67 680.91,-385.11 680.18,-378.15"/>
<text text-anchor="middle" x="958.23" y="-205.65" font-family="Times-Roman" font-size="14.00">time_sync_.*</text>
</g>
<!-- 11&#45;&gt;10 -->
<g id="edge26" class="edge">
<title>11&#45;&gt;10</title>
<path fill="none" stroke="black" d="M830.13,-61.06C808.42,-77.92 783.3,-96.93 777.23,-99.43 691.54,-134.69 585.85,-146.08 510.66,-149.35"/>
<polygon fill="black" stroke="black" points="510.11,-145.87 500.26,-149.76 510.39,-152.86 510.11,-145.87"/>
<text text-anchor="middle" x="857.23" y="-88.23" font-family="Times-Roman" font-size="14.00">fragments_df&#45;01</text>
</g>
<!-- legendA -->
<g id="node14" class="node">
<title>legendA</title>
<text text-anchor="start" x="1206.23" y="-858.68" font-family="Times-Roman" font-weight="bold" font-style="italic" font-size="14.00">black: session</text>
</g>
<!-- legendB -->
<g id="node15" class="node">
<title>legendB</title>
<text text-anchor="start" x="1197.73" y="-761.57" font-family="Times-Roman" font-weight="bold" font-style="italic" font-size="14.00" fill="brown">brown: segment</text>
</g>
<!-- legendA&#45;&gt;legendB -->
<!-- legendC -->
<g id="node16" class="node">
<title>legendC</title>
<text text-anchor="start" x="1195.73" y="-662.51" font-family="Times-Roman" font-weight="bold" font-style="italic" font-size="14.00" fill="blue">blue: application</text>
</g>
<!-- legendB&#45;&gt;legendC -->
</g>
</svg>
