<?xml version="1.0" encoding="UTF-8" standalone="no"?>
<!DOCTYPE svg PUBLIC "-//W3C//DTD SVG 1.1//EN"
 "http://www.w3.org/Graphics/SVG/1.1/DTD/svg11.dtd">
<!-- Generated by graphviz version 2.44.0 (0)
 -->
<!-- Title: G Pages: 1 -->
<svg width="1392pt" height="898pt"
 viewBox="0.00 0.00 1392.19 898.46" xmlns="http://www.w3.org/2000/svg" xmlns:xlink="http://www.w3.org/1999/xlink">
<g id="graph0" class="graph" transform="scale(1 1) rotate(0) translate(4 894.46)">
<title>G</title>
<polygon fill="white" stroke="transparent" points="-4,4 -4,-894.46 1388.19,-894.46 1388.19,4 -4,4"/>
<!-- 0 -->
<g id="node1" class="node">
<title>0</title>
<polygon fill="none" stroke="black" points="521.63,-849.3 521.63,-873.46 442.29,-890.55 330.09,-890.55 250.75,-873.46 250.75,-849.3 330.09,-832.21 442.29,-832.21 521.63,-849.3"/>
<text text-anchor="middle" x="386.19" y="-865.18" font-family="Times-Roman" font-size="14.00">local&#45;socket&#45;1x1&#45;config</text>
<text text-anchor="middle" x="386.19" y="-850.18" font-family="Times-Roman" font-size="14.00">Session</text>
</g>
<!-- 3 -->
<g id="node4" class="node">
<title>3</title>
<polygon fill="none" stroke="brown" points="515.84,-764.27 451.02,-795.32 321.37,-795.32 256.55,-764.27 321.37,-733.21 451.02,-733.21 515.84,-764.27"/>
<text text-anchor="middle" x="386.19" y="-768.07" font-family="Times-Roman" font-size="14.00" fill="brown">socket&#45;root&#45;segment</text>
<text text-anchor="middle" x="386.19" y="-753.07" font-family="Times-Roman" font-size="14.00" fill="brown">Segment</text>
</g>
<!-- 0&#45;&gt;3 -->
<g id="edge1" class="edge">
<title>0&#45;&gt;3</title>
<path fill="none" stroke="black" stroke-dasharray="1,5" d="M386.19,-832.1C386.19,-820.6 386.19,-807.29 386.19,-795.59"/>
</g>
<!-- 1 -->
<g id="node2" class="node">
<title>1</title>
<polygon fill="none" stroke="blue" points="330.58,-278.4 165.19,-301.49 -0.19,-278.4 62.98,-241.02 267.41,-241.02 330.58,-278.4"/>
<text text-anchor="middle" x="165.19" y="-271.87" font-family="Times-Roman" font-size="14.00" fill="blue">hsi&#45;fake&#45;to&#45;tc&#45;app</text>
<text text-anchor="middle" x="165.19" y="-256.87" font-family="Times-Roman" font-size="14.00" fill="blue">HSIEventToTCApplication</text>
</g>
<!-- 4 -->
<g id="node5" class="node">
<title>4</title>
<polygon fill="none" stroke="blue" points="909.21,-160.97 805.19,-184.07 701.17,-160.97 740.9,-123.6 869.48,-123.6 909.21,-160.97"/>
<text text-anchor="middle" x="805.19" y="-154.44" font-family="Times-Roman" font-size="14.00" fill="blue">mlt</text>
<text text-anchor="middle" x="805.19" y="-139.44" font-family="Times-Roman" font-size="14.00" fill="blue">MLTApplication</text>
</g>
<!-- 1&#45;&gt;4 -->
<g id="edge13" class="edge">
<title>1&#45;&gt;4</title>
<path fill="none" stroke="black" d="M211,-240.95C237.64,-226.99 272.36,-210.87 305.19,-201.85 438.51,-165.24 598.37,-154.72 700.83,-152.01"/>
<polygon fill="black" stroke="black" points="700.96,-155.51 710.87,-151.76 700.79,-148.51 700.96,-155.51"/>
<text text-anchor="middle" x="324.69" y="-205.65" font-family="Times-Roman" font-size="14.00">tcs_.*</text>
</g>
<!-- 2 -->
<g id="node3" class="node">
<title>2</title>
<polygon fill="none" stroke="blue" points="330.65,-395.82 200.19,-418.92 69.73,-395.82 119.56,-358.45 280.82,-358.45 330.65,-395.82"/>
<text text-anchor="middle" x="200.19" y="-389.29" font-family="Times-Roman" font-size="14.00" fill="blue">hsi&#45;fake&#45;01</text>
<text text-anchor="middle" x="200.19" y="-374.29" font-family="Times-Roman" font-size="14.00" fill="blue">FakeHSIApplication</text>
</g>
<!-- 2&#45;&gt;1 -->
<g id="edge14" class="edge">
<title>2&#45;&gt;1</title>
<path fill="none" stroke="black" d="M192.25,-358.3C187.94,-344.09 182.52,-326.2 177.66,-310.18"/>
<polygon fill="black" stroke="black" points="180.97,-309.04 174.72,-300.49 174.27,-311.08 180.97,-309.04"/>
<text text-anchor="middle" x="218.69" y="-323.08" font-family="Times-Roman" font-size="14.00">hsi_event</text>
</g>
<!-- 6 -->
<g id="node7" class="node">
<title>6</title>
<polygon fill="none" stroke="blue" points="905.23,-513.25 808.19,-536.35 711.16,-513.25 748.22,-475.88 868.16,-475.88 905.23,-513.25"/>
<text text-anchor="middle" x="808.19" y="-506.72" font-family="Times-Roman" font-size="14.00" fill="blue">df&#45;01</text>
<text text-anchor="middle" x="808.19" y="-491.72" font-family="Times-Roman" font-size="14.00" fill="blue">DFApplication</text>
</g>
<!-- 2&#45;&gt;6 -->
<g id="edge15" class="edge">
<title>2&#45;&gt;6</title>
<path fill="none" stroke="black" d="M214.2,-416.77C221.96,-429.91 232.94,-444.02 247.19,-451.71 288.01,-473.72 618.22,-463.62 664.19,-469.71 685.68,-472.55 708.69,-477.03 729.87,-481.76"/>
<polygon fill="black" stroke="black" points="729.26,-485.21 739.78,-484.02 730.81,-478.38 729.26,-485.21"/>
<text text-anchor="middle" x="305.19" y="-440.51" font-family="Times-Roman" font-size="14.00">fragments_df&#45;01</text>
</g>
<!-- 5 -->
<g id="node6" class="node">
<title>5</title>
<polygon fill="none" stroke="brown" points="886.46,-665.21 847.33,-696.27 769.06,-696.27 729.92,-665.21 769.06,-634.16 847.33,-634.16 886.46,-665.21"/>
<text text-anchor="middle" x="808.19" y="-669.01" font-family="Times-Roman" font-size="14.00" fill="brown">df&#45;segment</text>
<text text-anchor="middle" x="808.19" y="-654.01" font-family="Times-Roman" font-size="14.00" fill="brown">Segment</text>
</g>
<!-- 3&#45;&gt;5 -->
<g id="edge3" class="edge">
<title>3&#45;&gt;5</title>
<path fill="none" stroke="black" stroke-dasharray="1,5" d="M472.61,-743.39C554.84,-724.48 676.39,-696.53 748.41,-679.96"/>
</g>
<!-- 8 -->
<g id="node9" class="node">
<title>8</title>
<polygon fill="none" stroke="brown" points="268.91,-502.92 213.05,-533.97 101.33,-533.97 45.47,-502.92 101.33,-471.87 213.05,-471.87 268.91,-502.92"/>
<text text-anchor="middle" x="157.19" y="-506.72" font-family="Times-Roman" font-size="14.00" fill="brown">hsi&#45;fake&#45;segment</text>
<text text-anchor="middle" x="157.19" y="-491.72" font-family="Times-Roman" font-size="14.00" fill="brown">Segment</text>
</g>
<!-- 3&#45;&gt;8 -->
<g id="edge5" class="edge">
<title>3&#45;&gt;8</title>
<path fill="none" stroke="black" stroke-dasharray="1,5" d="M343.42,-733.06C306.7,-705.61 254.03,-662.43 217.19,-616.19 197.09,-590.95 180.4,-557.98 169.77,-534.31"/>
</g>
<!-- 9 -->
<g id="node10" class="node">
<title>9</title>
<polygon fill="none" stroke="brown" points="392.26,-585.16 350.72,-616.21 267.66,-616.21 226.13,-585.16 267.66,-554.11 350.72,-554.11 392.26,-585.16"/>
<text text-anchor="middle" x="309.19" y="-588.96" font-family="Times-Roman" font-size="14.00" fill="brown">trg&#45;segment</text>
<text text-anchor="middle" x="309.19" y="-573.96" font-family="Times-Roman" font-size="14.00" fill="brown">Segment</text>
</g>
<!-- 3&#45;&gt;9 -->
<g id="edge4" class="edge">
<title>3&#45;&gt;9</title>
<path fill="none" stroke="black" stroke-dasharray="1,5" d="M373.13,-733.22C358.97,-700.65 336.5,-648.98 322.32,-616.35"/>
</g>
<!-- 10 -->
<g id="node11" class="node">
<title>10</title>
<polygon fill="none" stroke="brown" points="610.24,-665.21 550.22,-696.27 430.17,-696.27 370.14,-665.21 430.17,-634.16 550.22,-634.16 610.24,-665.21"/>
<text text-anchor="middle" x="490.19" y="-669.01" font-family="Times-Roman" font-size="14.00" fill="brown">socket&#45;ru&#45;segment</text>
<text text-anchor="middle" x="490.19" y="-654.01" font-family="Times-Roman" font-size="14.00" fill="brown">Segment</text>
</g>
<!-- 3&#45;&gt;10 -->
<g id="edge2" class="edge">
<title>3&#45;&gt;10</title>
<path fill="none" stroke="black" stroke-dasharray="1,5" d="M418.53,-733.09C431.05,-721.4 445.36,-708.05 457.88,-696.37"/>
</g>
<!-- 4&#45;&gt;4 -->
<g id="edge16" class="edge">
<title>4&#45;&gt;4</title>
<path fill="none" stroke="black" d="M908.45,-159.79C919.84,-158.05 927.2,-155 927.2,-150.64 927.2,-144.95 914.69,-141.5 897.03,-140.27"/>
<polygon fill="black" stroke="black" points="896.87,-136.76 886.73,-139.82 896.57,-143.75 896.87,-136.76"/>
<text text-anchor="middle" x="946.7" y="-146.94" font-family="Times-Roman" font-size="14.00">tcs_.*</text>
</g>
<!-- 4&#45;&gt;6 -->
<g id="edge17" class="edge">
<title>4&#45;&gt;6</title>
<path fill="none" stroke="black" d="M839.35,-176.77C858.09,-191.92 880.6,-212.58 896.19,-234.85 923.6,-274.02 911.85,-293.75 937.19,-334.28 969.47,-385.91 1006.56,-379.78 1028.19,-436.71 1030.56,-442.94 1032.35,-446.49 1028.19,-451.71 1011.55,-472.57 950.29,-485.45 896.63,-492.94"/>
<polygon fill="black" stroke="black" points="896.15,-489.47 886.71,-494.27 897.09,-496.41 896.15,-489.47"/>
<text text-anchor="middle" x="995.19" y="-323.08" font-family="Times-Roman" font-size="14.00">fragments_df&#45;01</text>
</g>
<!-- 7 -->
<g id="node8" class="node">
<title>7</title>
<polygon fill="none" stroke="blue" points="1167.7,-43.54 1060.19,-66.64 952.68,-43.54 993.75,-6.17 1126.64,-6.17 1167.7,-43.54"/>
<text text-anchor="middle" x="1060.19" y="-37.01" font-family="Times-Roman" font-size="14.00" fill="blue">dfo&#45;01</text>
<text text-anchor="middle" x="1060.19" y="-22.01" font-family="Times-Roman" font-size="14.00" fill="blue">DFOApplication</text>
</g>
<!-- 4&#45;&gt;7 -->
<g id="edge18" class="edge">
<title>4&#45;&gt;7</title>
<path fill="none" stroke="black" d="M871.5,-125.09C891.5,-117.29 913.39,-108.37 933.19,-99.43 958.42,-88.04 985.8,-74.17 1008.66,-62.16"/>
<polygon fill="black" stroke="black" points="1010.31,-65.25 1017.51,-57.49 1007.04,-59.06 1010.31,-65.25"/>
<text text-anchor="middle" x="998.69" y="-88.23" font-family="Times-Roman" font-size="14.00">td_mlt_dfo</text>
</g>
<!-- 5&#45;&gt;6 -->
<g id="edge7" class="edge">
<title>5&#45;&gt;6</title>
<path fill="none" stroke="black" stroke-dasharray="1,5" d="M808.19,-634.06C808.19,-606.13 808.19,-564.71 808.19,-536.13"/>
</g>
<!-- 5&#45;&gt;7 -->
<g id="edge6" class="edge">
<title>5&#45;&gt;7</title>
<path fill="none" stroke="black" stroke-dasharray="1,5" d="M861.37,-645.18C872.49,-641.39 884.19,-637.55 895.19,-634.19 1110.3,-568.51 1384.19,-728.83 1384.19,-503.92 1384.19,-503.92 1384.19,-503.92 1384.19,-149.64 1384.19,-99.33 1243.83,-65.24 1147.87,-47.82"/>
</g>
<!-- 6&#45;&gt;2 -->
<g id="edge19" class="edge">
<title>6&#45;&gt;2</title>
<path fill="none" stroke="black" d="M739.73,-484.42C715.96,-478.93 689.03,-473.35 664.19,-469.71 553.54,-453.45 523.14,-472.21 413.19,-451.71 411.4,-451.37 337.53,-428.72 277.28,-410.2"/>
<polygon fill="black" stroke="black" points="277.95,-406.75 267.36,-407.16 275.89,-413.44 277.95,-406.75"/>
<text text-anchor="middle" x="517.69" y="-440.51" font-family="Times-Roman" font-size="14.00">data_requests_for_hsi&#45;fake&#45;01</text>
</g>
<!-- 6&#45;&gt;4 -->
<g id="edge20" class="edge">
<title>6&#45;&gt;4</title>
<path fill="none" stroke="black" d="M738.37,-485.64C716.91,-478.04 694.43,-467.15 677.19,-451.71 636.82,-415.53 649.26,-388.25 644.19,-334.28 637.8,-266.19 703.79,-211.22 753.23,-179.98"/>
<polygon fill="black" stroke="black" points="755.26,-182.84 761.93,-174.61 751.58,-176.88 755.26,-182.84"/>
<text text-anchor="middle" x="721.19" y="-323.08" font-family="Times-Roman" font-size="14.00">data_requests_for_mlt</text>
</g>
<!-- 6&#45;&gt;7 -->
<g id="edge21" class="edge">
<title>6&#45;&gt;7</title>
<path fill="none" stroke="black" d="M887.48,-495.01C947.42,-488.03 1022.77,-474.86 1043.19,-451.71 1067.55,-424.08 1063.96,-177.6 1061.44,-76.84"/>
<polygon fill="black" stroke="black" points="1064.93,-76.61 1061.17,-66.71 1057.93,-76.8 1064.93,-76.61"/>
<text text-anchor="middle" x="1114.69" y="-264.37" font-family="Times-Roman" font-size="14.00">dataflow_token</text>
</g>
<!-- 11 -->
<g id="node12" class="node">
<title>11</title>
<polygon fill="none" stroke="blue" points="933.15,-395.82 801.19,-418.92 669.23,-395.82 719.64,-358.45 882.75,-358.45 933.15,-395.82"/>
<text text-anchor="middle" x="801.19" y="-389.29" font-family="Times-Roman" font-size="14.00" fill="blue">socket&#45;ru&#45;01</text>
<text text-anchor="middle" x="801.19" y="-374.29" font-family="Times-Roman" font-size="14.00" fill="blue">ReadoutApplication</text>
</g>
<!-- 6&#45;&gt;11 -->
<g id="edge22" class="edge">
<title>6&#45;&gt;11</title>
<path fill="none" stroke="black" d="M806.6,-475.73C805.76,-461.87 804.71,-444.51 803.76,-428.8"/>
<polygon fill="black" stroke="black" points="807.25,-428.53 803.15,-418.76 800.26,-428.96 807.25,-428.53"/>
<text text-anchor="middle" x="914.69" y="-440.51" font-family="Times-Roman" font-size="14.00">data_requests_for_socket&#45;ru&#45;01</text>
</g>
<!-- 7&#45;&gt;4 -->
<g id="edge23" class="edge">
<title>7&#45;&gt;4</title>
<path fill="none" stroke="black" d="M964.26,-46.1C911.01,-54.43 851.52,-67.18 831.19,-84.43 822.37,-91.91 816.51,-102.82 812.64,-113.57"/>
<polygon fill="black" stroke="black" points="809.24,-112.72 809.61,-123.3 815.92,-114.8 809.24,-112.72"/>
<text text-anchor="middle" x="880.19" y="-88.23" font-family="Times-Roman" font-size="14.00">trigger_inhibit</text>
</g>
<!-- 7&#45;&gt;6 -->
<g id="edge24" class="edge">
<title>7&#45;&gt;6</title>
<path fill="none" stroke="black" d="M1116.73,-54.62C1155.96,-72.83 1201.19,-103.77 1201.19,-149.64 1201.19,-386.49 1201.19,-386.49 1201.19,-386.49 1201.19,-449.46 1013.13,-480.54 897.2,-493.73"/>
<polygon fill="black" stroke="black" points="896.8,-490.25 887.25,-494.83 897.57,-497.21 896.8,-490.25"/>
<text text-anchor="middle" x="1278.69" y="-264.37" font-family="Times-Roman" font-size="14.00">trigger_decision_df&#45;01</text>
</g>
<!-- 8&#45;&gt;1 -->
<g id="edge9" class="edge">
<title>8&#45;&gt;1</title>
<path fill="none" stroke="black" stroke-dasharray="1,5" d="M107.19,-471.79C89.2,-458.06 70.95,-440.07 61.19,-418.71 48.93,-391.85 48.4,-378.89 61.19,-352.28 72.81,-328.1 95.25,-308.75 116.33,-294.81"/>
</g>
<!-- 8&#45;&gt;2 -->
<g id="edge8" class="edge">
<title>8&#45;&gt;2</title>
<path fill="none" stroke="black" stroke-dasharray="1,5" d="M168.49,-471.59C174.76,-454.76 182.54,-433.88 188.82,-417.02"/>
</g>
<!-- 9&#45;&gt;4 -->
<g id="edge10" class="edge">
<title>9&#45;&gt;4</title>
<path fill="none" stroke="black" stroke-dasharray="1,5" d="M304.27,-554.01C301.84,-529.72 301.95,-495.5 316.19,-469.71 327,-450.13 624.41,-246.99 643.19,-234.85 667.78,-218.96 674.3,-215.51 700.19,-201.85 718.69,-192.09 739.39,-182.02 757.5,-173.48"/>
</g>
<!-- 10&#45;&gt;11 -->
<g id="edge12" class="edge">
<title>10&#45;&gt;11</title>
<path fill="none" stroke="black" stroke-dasharray="1,5" d="M552.38,-634.89C591.13,-613.22 638.36,-579.9 664.19,-536.13 686.84,-497.75 649.94,-471.97 677.19,-436.71 688.2,-422.46 703.91,-412.24 720.46,-404.91"/>
</g>
<!-- 12 -->
<g id="node13" class="node">
<title>12</title>
<polygon fill="none" stroke="blue" points="655.58,-513.25 490.19,-536.35 324.81,-513.25 387.98,-475.88 592.41,-475.88 655.58,-513.25"/>
<text text-anchor="middle" x="490.19" y="-506.72" font-family="Times-Roman" font-size="14.00" fill="blue">ss&#45;01</text>
<text text-anchor="middle" x="490.19" y="-491.72" font-family="Times-Roman" font-size="14.00" fill="blue">SocketSenderApplication</text>
</g>
<!-- 10&#45;&gt;12 -->
<g id="edge11" class="edge">
<title>10&#45;&gt;12</title>
<path fill="none" stroke="black" stroke-dasharray="1,5" d="M490.19,-634.06C490.19,-606.13 490.19,-564.71 490.19,-536.13"/>
</g>
<!-- 11&#45;&gt;4 -->
<g id="edge25" class="edge">
<title>11&#45;&gt;4</title>
<path fill="none" stroke="black" d="M801.64,-358.23C802.33,-318.34 803.64,-242.06 804.46,-194.19"/>
<polygon fill="black" stroke="black" points="807.96,-194.19 804.63,-184.13 800.96,-194.07 807.96,-194.19"/>
<text text-anchor="middle" x="848.19" y="-264.37" font-family="Times-Roman" font-size="14.00">time_sync_.*</text>
</g>
<!-- 11&#45;&gt;6 -->
<g id="edge26" class="edge">
<title>11&#45;&gt;6</title>
<path fill="none" stroke="black" d="M719.04,-404.66C691.34,-414.93 670.7,-430.13 685.19,-451.71 695.08,-466.43 710.13,-476.84 726.35,-484.2"/>
<polygon fill="black" stroke="black" points="725.42,-487.6 736,-488.19 728.1,-481.13 725.42,-487.6"/>
<text text-anchor="middle" x="743.19" y="-440.51" font-family="Times-Roman" font-size="14.00">fragments_df&#45;01</text>
</g>
<!-- legendA -->
<g id="node14" class="node">
<title>legendA</title>
<text text-anchor="start" x="923.19" y="-858.68" font-family="Times-Roman" font-weight="bold" font-style="italic" font-size="14.00">black: session</text>
</g>
<!-- legendB -->
<g id="node15" class="node">
<title>legendB</title>
<text text-anchor="start" x="914.69" y="-761.57" font-family="Times-Roman" font-weight="bold" font-style="italic" font-size="14.00" fill="brown">brown: segment</text>
</g>
<!-- legendA&#45;&gt;legendB -->
<!-- legendC -->
<g id="node16" class="node">
<title>legendC</title>
<text text-anchor="start" x="912.69" y="-662.51" font-family="Times-Roman" font-weight="bold" font-style="italic" font-size="14.00" fill="blue">blue: application</text>
</g>
<!-- legendB&#45;&gt;legendC -->
</g>
</svg>
