<?xml version="1.0" encoding="UTF-8" standalone="no"?>
<!DOCTYPE svg PUBLIC "-//W3C//DTD SVG 1.1//EN"
 "http://www.w3.org/Graphics/SVG/1.1/DTD/svg11.dtd">
<!-- Generated by graphviz version 2.44.0 (0)
 -->
<!-- Title: G Pages: 1 -->
<svg width="1732pt" height="781pt"
 viewBox="0.00 0.00 1731.82 781.03" xmlns="http://www.w3.org/2000/svg" xmlns:xlink="http://www.w3.org/1999/xlink">
<g id="graph0" class="graph" transform="scale(1 1) rotate(0) translate(4 777.03)">
<title>G</title>
<polygon fill="white" stroke="transparent" points="-4,4 -4,-777.03 1727.82,-777.03 1727.82,4 -4,4"/>
<!-- 0 -->
<g id="node1" class="node">
<title>0</title>
<polygon fill="none" stroke="brown" points="678.84,-646.84 609.54,-677.89 470.93,-677.89 401.62,-646.84 470.93,-615.79 609.54,-615.79 678.84,-646.84"/>
<text text-anchor="middle" x="540.23" y="-650.64" font-family="Times-Roman" font-size="14.00" fill="brown">crt&#45;bern&#45;root&#45;segment</text>
<text text-anchor="middle" x="540.23" y="-635.64" font-family="Times-Roman" font-size="14.00" fill="brown">Segment</text>
</g>
<!-- 4 -->
<g id="node5" class="node">
<title>4</title>
<polygon fill="none" stroke="brown" points="384.95,-547.79 329.09,-578.84 217.37,-578.84 161.51,-547.79 217.37,-516.73 329.09,-516.73 384.95,-547.79"/>
<text text-anchor="middle" x="273.23" y="-551.59" font-family="Times-Roman" font-size="14.00" fill="brown">hsi&#45;fake&#45;segment</text>
<text text-anchor="middle" x="273.23" y="-536.59" font-family="Times-Roman" font-size="14.00" fill="brown">Segment</text>
</g>
<!-- 0&#45;&gt;4 -->
<g id="edge4" class="edge">
<title>0&#45;&gt;4</title>
<path fill="none" stroke="black" stroke-dasharray="1,5" d="M464.79,-618.42C425.47,-604.12 377.8,-586.8 339.85,-573"/>
</g>
<!-- 5 -->
<g id="node6" class="node">
<title>5</title>
<polygon fill="none" stroke="brown" points="693.3,-467.73 651.76,-498.79 568.7,-498.79 527.16,-467.73 568.7,-436.68 651.76,-436.68 693.3,-467.73"/>
<text text-anchor="middle" x="610.23" y="-471.53" font-family="Times-Roman" font-size="14.00" fill="brown">trg&#45;segment</text>
<text text-anchor="middle" x="610.23" y="-456.53" font-family="Times-Roman" font-size="14.00" fill="brown">Segment</text>
</g>
<!-- 0&#45;&gt;5 -->
<g id="edge3" class="edge">
<title>0&#45;&gt;5</title>
<path fill="none" stroke="black" stroke-dasharray="1,5" d="M552.11,-615.8C564.98,-583.23 585.4,-531.55 598.3,-498.92"/>
</g>
<!-- 6 -->
<g id="node7" class="node">
<title>6</title>
<polygon fill="none" stroke="brown" points="558.5,-268.07 519.36,-299.12 441.1,-299.12 401.96,-268.07 441.1,-237.01 519.36,-237.01 558.5,-268.07"/>
<text text-anchor="middle" x="480.23" y="-271.87" font-family="Times-Roman" font-size="14.00" fill="brown">df&#45;segment</text>
<text text-anchor="middle" x="480.23" y="-256.87" font-family="Times-Roman" font-size="14.00" fill="brown">Segment</text>
</g>
<!-- 0&#45;&gt;6 -->
<g id="edge2" class="edge">
<title>0&#45;&gt;6</title>
<path fill="none" stroke="black" stroke-dasharray="1,5" d="M535.75,-615.64C527.13,-557.97 507.5,-428.22 489.23,-319.28 488.15,-312.82 486.94,-305.89 485.77,-299.32"/>
</g>
<!-- 9 -->
<g id="node10" class="node">
<title>9</title>
<polygon fill="none" stroke="brown" points="1511.08,-547.79 1454.66,-578.84 1341.8,-578.84 1285.38,-547.79 1341.8,-516.73 1454.66,-516.73 1511.08,-547.79"/>
<text text-anchor="middle" x="1398.23" y="-551.59" font-family="Times-Roman" font-size="14.00" fill="brown">crt&#45;bern&#45;segment</text>
<text text-anchor="middle" x="1398.23" y="-536.59" font-family="Times-Roman" font-size="14.00" fill="brown">Segment</text>
</g>
<!-- 0&#45;&gt;9 -->
<g id="edge1" class="edge">
<title>0&#45;&gt;9</title>
<path fill="none" stroke="black" stroke-dasharray="1,5" d="M649.33,-633.5C819.83,-614.21 1146.4,-577.27 1305.93,-559.23"/>
</g>
<!-- 1 -->
<g id="node2" class="node">
<title>1</title>
<polygon fill="none" stroke="black" points="684.01,-731.87 684.01,-756.03 599.79,-773.12 480.68,-773.12 396.45,-756.03 396.45,-731.87 480.68,-714.78 599.79,-714.78 684.01,-731.87"/>
<text text-anchor="middle" x="540.23" y="-747.75" font-family="Times-Roman" font-size="14.00">local&#45;crt&#45;bern&#45;1x1&#45;config</text>
<text text-anchor="middle" x="540.23" y="-732.75" font-family="Times-Roman" font-size="14.00">Session</text>
</g>
<!-- 1&#45;&gt;0 -->
<g id="edge5" class="edge">
<title>1&#45;&gt;0</title>
<path fill="none" stroke="black" stroke-dasharray="1,5" d="M540.23,-714.67C540.23,-703.17 540.23,-689.86 540.23,-678.16"/>
</g>
<!-- 2 -->
<g id="node3" class="node">
<title>2</title>
<polygon fill="none" stroke="blue" points="438.62,-395.82 273.23,-418.92 107.85,-395.82 171.02,-358.45 375.44,-358.45 438.62,-395.82"/>
<text text-anchor="middle" x="273.23" y="-389.29" font-family="Times-Roman" font-size="14.00" fill="blue">hsi&#45;fake&#45;to&#45;tc&#45;app</text>
<text text-anchor="middle" x="273.23" y="-374.29" font-family="Times-Roman" font-size="14.00" fill="blue">HSIEventToTCApplication</text>
</g>
<!-- 10 -->
<g id="node11" class="node">
<title>10</title>
<polygon fill="none" stroke="blue" points="784.25,-278.4 680.23,-301.49 576.21,-278.4 615.94,-241.02 744.52,-241.02 784.25,-278.4"/>
<text text-anchor="middle" x="680.23" y="-271.87" font-family="Times-Roman" font-size="14.00" fill="blue">mlt</text>
<text text-anchor="middle" x="680.23" y="-256.87" font-family="Times-Roman" font-size="14.00" fill="blue">MLTApplication</text>
</g>
<!-- 2&#45;&gt;10 -->
<g id="edge13" class="edge">
<title>2&#45;&gt;10</title>
<path fill="none" stroke="black" d="M365.6,-358.4C423.52,-342.02 499.75,-320.45 567.23,-301.28 579.9,-297.68 593.36,-293.85 606.41,-290.13"/>
<polygon fill="black" stroke="black" points="607.64,-293.42 616.29,-287.32 605.72,-286.69 607.64,-293.42"/>
<text text-anchor="middle" x="522.73" y="-323.08" font-family="Times-Roman" font-size="14.00">tcs_.*</text>
</g>
<!-- 3 -->
<g id="node4" class="node">
<title>3</title>
<polygon fill="none" stroke="blue" points="260.69,-43.54 130.23,-66.64 -0.23,-43.54 49.6,-6.17 210.86,-6.17 260.69,-43.54"/>
<text text-anchor="middle" x="130.23" y="-37.01" font-family="Times-Roman" font-size="14.00" fill="blue">hsi&#45;fake&#45;01</text>
<text text-anchor="middle" x="130.23" y="-22.01" font-family="Times-Roman" font-size="14.00" fill="blue">FakeHSIApplication</text>
</g>
<!-- 3&#45;&gt;2 -->
<g id="edge14" class="edge">
<title>3&#45;&gt;2</title>
<path fill="none" stroke="black" d="M140.62,-64.87C144.45,-75.83 148.9,-88.23 153.23,-99.43 188.31,-190.19 233.86,-295.3 257.47,-348.97"/>
<polygon fill="black" stroke="black" points="254.38,-350.63 261.62,-358.37 260.79,-347.81 254.38,-350.63"/>
<text text-anchor="middle" x="233.73" y="-205.65" font-family="Times-Roman" font-size="14.00">hsi_event</text>
</g>
<!-- 7 -->
<g id="node8" class="node">
<title>7</title>
<polygon fill="none" stroke="blue" points="639.27,-160.97 542.23,-184.07 445.2,-160.97 482.26,-123.6 602.2,-123.6 639.27,-160.97"/>
<text text-anchor="middle" x="542.23" y="-154.44" font-family="Times-Roman" font-size="14.00" fill="blue">df&#45;01</text>
<text text-anchor="middle" x="542.23" y="-139.44" font-family="Times-Roman" font-size="14.00" fill="blue">DFApplication</text>
</g>
<!-- 3&#45;&gt;7 -->
<g id="edge15" class="edge">
<title>3&#45;&gt;7</title>
<path fill="none" stroke="black" d="M142.71,-64.54C149.53,-77.35 159.28,-91.18 172.23,-99.43 216.88,-127.84 355.12,-140.44 449.39,-145.83"/>
<polygon fill="black" stroke="black" points="449.33,-149.34 459.51,-146.4 449.72,-142.35 449.33,-149.34"/>
<text text-anchor="middle" x="230.23" y="-88.23" font-family="Times-Roman" font-size="14.00">fragments_df&#45;01</text>
</g>
<!-- 4&#45;&gt;2 -->
<g id="edge7" class="edge">
<title>4&#45;&gt;2</title>
<path fill="none" stroke="black" stroke-dasharray="1,5" d="M273.23,-516.64C273.23,-488.7 273.23,-447.28 273.23,-418.71"/>
</g>
<!-- 4&#45;&gt;3 -->
<g id="edge6" class="edge">
<title>4&#45;&gt;3</title>
<path fill="none" stroke="black" stroke-dasharray="1,5" d="M204.81,-523.52C147.58,-499.2 75.23,-454.93 75.23,-386.49 75.23,-386.49 75.23,-386.49 75.23,-149.64 75.23,-117.67 92.63,-85.15 107.86,-62.81"/>
</g>
<!-- 5&#45;&gt;10 -->
<g id="edge8" class="edge">
<title>5&#45;&gt;10</title>
<path fill="none" stroke="black" stroke-dasharray="1,5" d="M621.01,-436.28C634.21,-399.03 656.4,-336.35 669.55,-299.23"/>
</g>
<!-- 6&#45;&gt;7 -->
<g id="edge10" class="edge">
<title>6&#45;&gt;7</title>
<path fill="none" stroke="black" stroke-dasharray="1,5" d="M493.13,-236.78C498.15,-225.63 504.14,-213.01 510.23,-201.85 514.24,-194.5 518.92,-186.78 523.43,-179.65"/>
</g>
<!-- 8 -->
<g id="node9" class="node">
<title>8</title>
<polygon fill="none" stroke="blue" points="827.74,-43.54 720.23,-66.64 612.72,-43.54 653.78,-6.17 786.68,-6.17 827.74,-43.54"/>
<text text-anchor="middle" x="720.23" y="-37.01" font-family="Times-Roman" font-size="14.00" fill="blue">dfo&#45;01</text>
<text text-anchor="middle" x="720.23" y="-22.01" font-family="Times-Roman" font-size="14.00" fill="blue">DFOApplication</text>
</g>
<!-- 6&#45;&gt;8 -->
<g id="edge9" class="edge">
<title>6&#45;&gt;8</title>
<path fill="none" stroke="black" stroke-dasharray="1,5" d="M429.35,-246.2C356.15,-213.33 235.72,-146.81 291.23,-84.43 312.57,-60.44 497.33,-46.08 617.33,-39.19"/>
</g>
<!-- 7&#45;&gt;3 -->
<g id="edge16" class="edge">
<title>7&#45;&gt;3</title>
<path fill="none" stroke="black" d="M468.64,-137.13C424.88,-128.68 368.64,-116.03 320.23,-99.43 305.37,-94.33 302.86,-90.15 288.23,-84.43 263.04,-74.57 235.05,-65.18 209.71,-57.24"/>
<polygon fill="black" stroke="black" points="210.72,-53.9 200.13,-54.28 208.65,-60.58 210.72,-53.9"/>
<text text-anchor="middle" x="424.73" y="-88.23" font-family="Times-Roman" font-size="14.00">data_requests_for_hsi&#45;fake&#45;01</text>
</g>
<!-- 7&#45;&gt;8 -->
<g id="edge18" class="edge">
<title>7&#45;&gt;8</title>
<path fill="none" stroke="black" d="M618.43,-139.83C646.61,-132.74 676.86,-120.5 698.23,-99.43 704.78,-92.96 709.38,-84.49 712.61,-75.8"/>
<polygon fill="black" stroke="black" points="716.04,-76.57 715.71,-65.98 709.36,-74.47 716.04,-76.57"/>
<text text-anchor="middle" x="760.73" y="-88.23" font-family="Times-Roman" font-size="14.00">dataflow_token</text>
</g>
<!-- 7&#45;&gt;10 -->
<g id="edge17" class="edge">
<title>7&#45;&gt;10</title>
<path fill="none" stroke="black" d="M600.4,-170.29C617.69,-177.97 635.63,-188.32 649.23,-201.85 657.46,-210.04 663.8,-220.85 668.53,-231.3"/>
<polygon fill="black" stroke="black" points="665.37,-232.82 672.43,-240.71 671.83,-230.14 665.37,-232.82"/>
<text text-anchor="middle" x="737.23" y="-205.65" font-family="Times-Roman" font-size="14.00">data_requests_for_mlt</text>
</g>
<!-- 11 -->
<g id="node12" class="node">
<title>11</title>
<polygon fill="none" stroke="blue" points="1279.19,-43.54 1147.23,-66.64 1015.27,-43.54 1065.68,-6.17 1228.79,-6.17 1279.19,-43.54"/>
<text text-anchor="middle" x="1147.23" y="-37.01" font-family="Times-Roman" font-size="14.00" fill="blue">crt&#45;bern&#45;ru&#45;01</text>
<text text-anchor="middle" x="1147.23" y="-22.01" font-family="Times-Roman" font-size="14.00" fill="blue">ReadoutApplication</text>
</g>
<!-- 7&#45;&gt;11 -->
<g id="edge19" class="edge">
<title>7&#45;&gt;11</title>
<path fill="none" stroke="black" d="M618.94,-140.44C674.31,-133.86 750.86,-124.88 818.23,-117.43 894.63,-108.97 915.74,-118.37 990.23,-99.43 1024.43,-90.73 1060.93,-75.93 1090.12,-62.63"/>
<polygon fill="black" stroke="black" points="1091.72,-65.75 1099.33,-58.37 1088.79,-59.39 1091.72,-65.75"/>
<text text-anchor="middle" x="1150.23" y="-88.23" font-family="Times-Roman" font-size="14.00">data_requests_for_crt&#45;bern&#45;ru&#45;01</text>
</g>
<!-- 8&#45;&gt;7 -->
<g id="edge21" class="edge">
<title>8&#45;&gt;7</title>
<path fill="none" stroke="black" d="M633.27,-48.07C592.94,-56.45 551.27,-68.59 539.23,-84.43 533.01,-92.61 531.57,-103.19 532.31,-113.44"/>
<polygon fill="black" stroke="black" points="528.86,-114.03 533.68,-123.47 535.8,-113.09 528.86,-114.03"/>
<text text-anchor="middle" x="616.73" y="-88.23" font-family="Times-Roman" font-size="14.00">trigger_decision_df&#45;01</text>
</g>
<!-- 8&#45;&gt;10 -->
<g id="edge20" class="edge">
<title>8&#45;&gt;10</title>
<path fill="none" stroke="black" d="M816.78,-45.97C872.17,-52.5 943.05,-60.47 1006.23,-66.43 1032.52,-68.9 1225.28,-65.06 1243.23,-84.43 1269.66,-112.94 1199.74,-107.23 1162.23,-117.43 1023.42,-155.16 991.79,-174.81 854.23,-216.85 823.84,-226.14 790.32,-235.92 760.89,-244.36"/>
<polygon fill="black" stroke="black" points="759.72,-241.05 751.07,-247.17 761.65,-247.78 759.72,-241.05"/>
<text text-anchor="middle" x="1211.23" y="-146.94" font-family="Times-Roman" font-size="14.00">trigger_inhibit</text>
</g>
<!-- 9&#45;&gt;11 -->
<g id="edge12" class="edge">
<title>9&#45;&gt;11</title>
<path fill="none" stroke="black" stroke-dasharray="1,5" d="M1398.23,-516.65C1398.23,-484.43 1398.23,-431.85 1398.23,-386.49 1398.23,-386.49 1398.23,-386.49 1398.23,-149.64 1398.23,-87.29 1333.5,-58.5 1269.79,-45.26"/>
</g>
<!-- 12 -->
<g id="node13" class="node">
<title>12</title>
<polygon fill="none" stroke="blue" points="1723.9,-395.82 1575.23,-418.92 1426.56,-395.82 1483.35,-358.45 1667.11,-358.45 1723.9,-395.82"/>
<text text-anchor="middle" x="1575.23" y="-389.29" font-family="Times-Roman" font-size="14.00" fill="blue">crt&#45;bern&#45;01</text>
<text text-anchor="middle" x="1575.23" y="-374.29" font-family="Times-Roman" font-size="14.00" fill="blue">CRTReaderApplication</text>
</g>
<!-- 9&#45;&gt;12 -->
<g id="edge11" class="edge">
<title>9&#45;&gt;12</title>
<path fill="none" stroke="black" stroke-dasharray="1,5" d="M1431.52,-516.64C1463.97,-487.25 1512.9,-442.94 1544.46,-414.36"/>
</g>
<!-- 10&#45;&gt;7 -->
<g id="edge23" class="edge">
<title>10&#45;&gt;7</title>
<path fill="none" stroke="black" d="M609.04,-247.46C572.45,-236.67 534.42,-224.05 529.23,-216.85 523.73,-209.22 523.04,-199.84 524.67,-190.59"/>
<polygon fill="black" stroke="black" points="528.12,-191.26 527.23,-180.7 521.34,-189.51 528.12,-191.26"/>
<text text-anchor="middle" x="587.23" y="-205.65" font-family="Times-Roman" font-size="14.00">fragments_df&#45;01</text>
</g>
<!-- 10&#45;&gt;8 -->
<g id="edge24" class="edge">
<title>10&#45;&gt;8</title>
<path fill="none" stroke="black" d="M760.28,-255.54C782.7,-248.21 804.63,-236.27 818.23,-216.85 826.68,-204.79 882.67,-190.96 817.23,-84.43 810.69,-73.78 801.09,-65.29 790.44,-58.55"/>
<polygon fill="black" stroke="black" points="792.13,-55.48 781.72,-53.51 788.63,-61.54 792.13,-55.48"/>
<text text-anchor="middle" x="885.73" y="-146.94" font-family="Times-Roman" font-size="14.00">td_mlt_dfo</text>
</g>
<!-- 10&#45;&gt;10 -->
<g id="edge22" class="edge">
<title>10&#45;&gt;10</title>
<path fill="none" stroke="black" d="M783.48,-277.21C794.88,-275.48 802.24,-272.43 802.24,-268.07 802.24,-262.38 789.73,-258.92 772.06,-257.7"/>
<polygon fill="black" stroke="black" points="771.91,-254.19 761.77,-257.24 771.6,-261.18 771.91,-254.19"/>
<text text-anchor="middle" x="821.74" y="-264.37" font-family="Times-Roman" font-size="14.00">tcs_.*</text>
</g>
<!-- 11&#45;&gt;7 -->
<g id="edge26" class="edge">
<title>11&#45;&gt;7</title>
<path fill="none" stroke="black" d="M1049.33,-49.59C996.11,-58.55 929.27,-70.75 870.23,-84.43 846.38,-89.95 841.08,-93.89 817.23,-99.43 753.81,-114.16 681.34,-127.24 626.73,-136.35"/>
<polygon fill="black" stroke="black" points="626.03,-132.92 616.74,-138.01 627.18,-139.82 626.03,-132.92"/>
<text text-anchor="middle" x="928.23" y="-88.23" font-family="Times-Roman" font-size="14.00">fragments_df&#45;01</text>
</g>
<!-- 11&#45;&gt;10 -->
<g id="edge25" class="edge">
<title>11&#45;&gt;10</title>
<path fill="none" stroke="black" d="M1223.08,-53.49C1237.77,-60.76 1251.34,-70.75 1260.23,-84.43 1284.31,-121.48 1289.17,-150.46 1260.23,-183.85 1199.74,-253.64 933.27,-266.29 783.45,-267.75"/>
<polygon fill="black" stroke="black" points="783.28,-264.25 773.31,-267.83 783.34,-271.25 783.28,-264.25"/>
<text text-anchor="middle" x="1324.23" y="-146.94" font-family="Times-Roman" font-size="14.00">time_sync_.*</text>
</g>
<!-- legendA -->
<g id="node14" class="node">
<title>legendA</title>
<text text-anchor="start" x="1547.23" y="-741.25" font-family="Times-Roman" font-weight="bold" font-style="italic" font-size="14.00">black: session</text>
</g>
<!-- legendB -->
<g id="node15" class="node">
<title>legendB</title>
<text text-anchor="start" x="1538.73" y="-644.14" font-family="Times-Roman" font-weight="bold" font-style="italic" font-size="14.00" fill="brown">brown: segment</text>
</g>
<!-- legendA&#45;&gt;legendB -->
<!-- legendC -->
<g id="node16" class="node">
<title>legendC</title>
<text text-anchor="start" x="1536.73" y="-545.09" font-family="Times-Roman" font-weight="bold" font-style="italic" font-size="14.00" fill="blue">blue: application</text>
</g>
<!-- legendB&#45;&gt;legendC -->
</g>
</svg>
